<?xml version="1.0" encoding="iso-8859-1"?>
<!-- Uploaded to: SVG Repo, www.svgrepo.com, Generator: SVG Repo Mixer Tools -->
<svg height="800px" width="800px" version="1.1" id="Layer_1" xmlns="http://www.w3.org/2000/svg" xmlns:xlink="http://www.w3.org/1999/xlink" 
	 viewBox="0 0 512 512" xml:space="preserve">
<path style="fill:#FEEBC7;" d="M12.8,89.6v332.8h486.4V89.6H12.8z"/>
<g>
	<path style="fill:#573A32;" d="M486.4,76.8H25.6C11.46,76.8,0,88.26,0,102.4v307.2c0,14.14,11.46,25.6,25.6,25.6h460.8
		c14.14,0,25.6-11.46,25.6-25.6V102.4C512,88.26,500.54,76.8,486.4,76.8z M463.326,102.4L256,240.623L48.674,102.4H463.326z
		 M486.4,409.6H25.6V117.777L248.9,266.65c2.15,1.425,4.625,2.15,7.1,2.15c2.475,0,4.949-0.725,7.1-2.15l223.3-148.873V409.6z"/>
	<path style="fill:#573A32;" d="M197.7,270.95L44.1,373.35c-5.888,3.925-7.475,11.878-3.55,17.749c2.466,3.703,6.528,5.7,10.667,5.7
		c2.441,0,4.898-0.7,7.091-2.15l153.6-102.4c5.888-3.925,7.475-11.878,3.55-17.749C211.541,268.604,203.597,267.025,197.7,270.95z"
		/>
	<path style="fill:#573A32;" d="M300.1,292.25l153.6,102.4c2.185,1.451,4.651,2.15,7.091,2.15c4.139,0,8.201-1.997,10.667-5.7
		c3.925-5.871,2.338-13.824-3.55-17.749l-153.6-102.4c-5.914-3.925-13.85-2.347-17.749,3.55
		C292.625,280.371,294.212,288.324,300.1,292.25z"/>
</g>
</svg>